<svg xmlns="http://www.w3.org/2000/svg" width="512" height="512" viewBox="0 0 512 512"><rect width="512" height="512" rx="112.64" fill="#4B47E6"/><path d="M 64 140 V 64 H 140" fill="none" stroke="#FFFFFF" stroke-width="28" stroke-linecap="round" stroke-linejoin="round"/><path d="M 448 140 V 64 H 372" fill="none" stroke="#FFFFFF" stroke-width="28" stroke-linecap="round" stroke-linejoin="round"/><path d="M 64 372 V 448 H 140" fill="none" stroke="#FFFFFF" stroke-width="28" stroke-linecap="round" stroke-linejoin="round"/><path d="M 448 372 V 448 H 372" fill="none" stroke="#FFFFFF" stroke-width="28" stroke-linecap="round" stroke-linejoin="round"/><rect x="176.00" y="168.00" width="8.10" height="176" rx="3.68" fill="#FFFFFF"/><rect x="188.15" y="168.00" width="4.05" height="176" rx="1.84" fill="#FFFFFF"/><rect x="196.25" y="168.00" width="4.05" height="176" rx="1.84" fill="#FFFFFF"/><rect x="204.35" y="168.00" width="10.13" height="176" rx="4.60" fill="#FFFFFF"/><rect x="218.53" y="168.00" width="4.05" height="176" rx="1.84" fill="#FFFFFF"/><rect x="226.63" y="168.00" width="8.10" height="176" rx="3.68" fill="#FFFFFF"/><rect x="238.78" y="168.00" width="4.05" height="176" rx="1.84" fill="#FFFFFF"/><rect x="246.89" y="168.00" width="4.05" height="176" rx="1.84" fill="#FFFFFF"/><rect x="254.99" y="168.00" width="10.13" height="176" rx="4.60" fill="#FFFFFF"/><rect x="269.16" y="168.00" width="4.05" height="176" rx="1.84" fill="#FFFFFF"/><rect x="277.27" y="168.00" width="8.10" height="176" rx="3.68" fill="#FFFFFF"/><rect x="289.42" y="168.00" width="4.05" height="176" rx="1.84" fill="#FFFFFF"/><rect x="297.52" y="168.00" width="10.13" height="176" rx="4.60" fill="#FFFFFF"/><rect x="311.70" y="168.00" width="4.05" height="176" rx="1.84" fill="#FFFFFF"/><rect x="319.80" y="168.00" width="8.10" height="176" rx="3.68" fill="#FFFFFF"/><rect x="331.95" y="168.00" width="4.05" height="176" rx="1.84" fill="#FFFFFF"/></svg>